ply
format ascii 1.0
comment Created by Blender 2.83.5 - www.blender.org, source file: 'prism.blend'
element vertex 18
property float x
property float y
property float z
property float nx
property float ny
property float nz
property float s
property float t
element face 8
property list uchar uint vertex_indices
end_header
-1.000000 -1.000000 0.000000 0.000000 -0.447214 0.894427 0.625000 0.750000
2.000000 1.000000 1.000000 0.000000 -0.447214 0.894427 0.375000 1.000000
-2.000000 1.000000 1.000000 0.000000 -0.447214 0.894427 0.375000 0.750000
2.000000 1.000000 1.000000 0.894427 -0.447214 0.000000 0.375000 0.000000
1.000000 -1.000000 0.000000 0.894427 -0.447214 0.000000 0.625000 0.250000
2.000000 1.000000 -1.000000 0.894427 -0.447214 0.000000 0.375000 0.250000
-2.000000 1.000000 -1.000000 0.000000 1.000000 -0.000000 0.375000 0.500000
2.000000 1.000000 1.000000 0.000000 1.000000 -0.000000 0.125000 0.750000
2.000000 1.000000 -1.000000 0.000000 1.000000 -0.000000 0.125000 0.500000
-2.000000 1.000000 -1.000000 -0.894427 -0.447214 0.000000 0.375000 0.500000
-1.000000 -1.000000 0.000000 -0.894427 -0.447214 0.000000 0.625000 0.750000
-2.000000 1.000000 1.000000 -0.894427 -0.447214 0.000000 0.375000 0.750000
1.000000 -1.000000 0.000000 -0.000000 -0.447214 -0.894427 0.625000 0.250000
-2.000000 1.000000 -1.000000 -0.000000 -0.447214 -0.894427 0.375000 0.500000
2.000000 1.000000 -1.000000 -0.000000 -0.447214 -0.894427 0.375000 0.250000
1.000000 -1.000000 0.000000 0.000000 -0.447214 0.894427 0.625000 1.000000
-2.000000 1.000000 1.000000 0.000000 1.000000 0.000000 0.375000 0.750000
-1.000000 -1.000000 0.000000 0.000000 -0.447214 -0.894427 0.625000 0.500000
3 0 1 2
3 3 4 5
3 6 7 8
3 9 10 11
3 12 13 14
3 0 15 1
3 6 16 7
3 12 17 13
